<?xml version="1.0" encoding="UTF-8" standalone="no"?>
<svg
   xmlns:dc="http://purl.org/dc/elements/1.1/"
   xmlns:cc="http://creativecommons.org/ns#"
   xmlns:rdf="http://www.w3.org/1999/02/22-rdf-syntax-ns#"
   xmlns:svg="http://www.w3.org/2000/svg"
   xmlns="http://www.w3.org/2000/svg"
   xmlns:sodipodi="http://sodipodi.sourceforge.net/DTD/sodipodi-0.dtd"
   xmlns:inkscape="http://www.inkscape.org/namespaces/inkscape"
   viewBox="0 0 576 512"
   version="1.1"
   id="svg22"
   sodipodi:docname="display-settings.svg"
   inkscape:version="1.0.1 (3bc2e813f5, 2020-09-07)">
  <metadata
     id="metadata28">
    <rdf:RDF>
      <cc:Work
         rdf:about="">
        <dc:format>image/svg+xml</dc:format>
        <dc:type
           rdf:resource="http://purl.org/dc/dcmitype/StillImage" />
        <dc:title></dc:title>
      </cc:Work>
    </rdf:RDF>
  </metadata>
  <defs
     id="defs26" />
  <sodipodi:namedview
     pagecolor="#ffffff"
     bordercolor="#666666"
     borderopacity="1"
     objecttolerance="10"
     gridtolerance="10"
     guidetolerance="10"
     inkscape:pageopacity="0"
     inkscape:pageshadow="2"
     inkscape:window-width="1207"
     inkscape:window-height="860"
     id="namedview24"
     showgrid="false"
     inkscape:zoom="0.58695387"
     inkscape:cx="-37.013136"
     inkscape:cy="62.552141"
     inkscape:window-x="0"
     inkscape:window-y="0"
     inkscape:window-maximized="0"
     inkscape:current-layer="svg22" />
  <!-- Font Awesome Free 5.15.1 by @fontawesome - https://fontawesome.com License - https://fontawesome.com/license/free (Icons: CC BY 4.0, Fonts: SIL OFL 1.1, Code: MIT License) -->
  <path
     d="M528 0H48C21.5 0 0 21.5 0 48v320c0 26.5 21.5 48 48 48h192l-16 48h-72c-13.3 0-24 10.7-24 24s10.7 24 24 24h272c13.3 0 24-10.7 24-24s-10.7-24-24-24h-72l-16-48h192c26.5 0 48-21.5 48-48V48c0-26.5-21.5-48-48-48zm-16 352H64V64h448v288z"
     id="path20" />
  <path
     d="m 377.08095,177.55895 -3.9867,6.9524 c -1.45854,2.57676 -4.57011,3.64636 -7.34135,2.62538 -5.73694,-2.1392 -10.98771,-5.20215 -15.60644,-9.04298 -2.23644,-1.8475 -2.81986,-5.10492 -1.36131,-7.63306 l 3.98669,-6.95241 c -3.35465,-3.88946 -5.98004,-8.41095 -7.73029,-13.32139 h -8.02201 c -2.91709,0 -5.44524,-2.09058 -5.93142,-5.00767 -0.97236,-5.83419 -1.02098,-11.96009 0,-18.03736 0.48618,-2.91709 3.01433,-5.05629 5.93142,-5.05629 h 8.02201 c 1.75025,-4.91044 4.37564,-9.43194 7.73029,-13.32139 l -3.98669,-6.95241 c -1.45855,-2.528136 -0.92375,-5.785556 1.36131,-7.633056 4.61873,-3.84083 9.91811,-6.90378 15.60644,-9.04298 2.77124,-1.02098 5.88281,0.0486 7.34135,2.62538 l 3.9867,6.95241 c 5.10491,-0.92375 10.30706,-0.92375 15.41197,0 l 3.98669,-6.95241 c 1.45855,-2.57676 4.57011,-3.64636 7.34135,-2.62538 5.73695,2.1392 10.98772,5.20215 15.60645,9.04298 2.23643,1.8475 2.81985,5.10492 1.3613,7.633056 l -3.98669,6.95241 c 3.35466,3.88945 5.98004,8.41095 7.7303,13.32139 h 8.022 c 2.91709,0 5.44524,2.09058 5.93142,5.00767 0.97237,5.83419 1.02098,11.96008 0,18.03736 -0.48618,2.91709 -3.01433,5.05629 -5.93142,5.05629 h -8.022 c -1.75026,4.91044 -4.37564,9.43193 -7.7303,13.32139 l 3.98669,6.95241 c 1.45855,2.52814 0.92375,5.78556 -1.3613,7.63306 -4.61873,3.84083 -9.91812,6.90378 -15.60645,9.04298 -2.77124,1.02098 -5.8828,-0.0486 -7.34135,-2.62538 l -3.98669,-6.9524 c -5.0563,0.92374 -10.30706,0.92374 -15.41197,0 z m -5.10492,-28.58751 c 18.71801,14.39098 40.06141,-6.95241 25.67042,-25.67042 -18.71801,-14.43961 -40.06141,6.9524 -25.67042,25.67042 z m -56.05679,74.82342 16.38434,8.16786 c 4.91044,2.81985 7.04964,8.79989 5.10491,14.1479 -4.32702,11.7656 -12.83521,22.55885 -20.71136,31.99078 -3.59775,4.32702 -9.82088,5.39662 -14.73131,2.57676 l -14.1479,-8.16786 c -7.77892,6.6607 -16.8219,11.96008 -26.6914,15.41198 v 16.33571 c 0,5.63972 -4.03531,10.50154 -9.57779,11.4739 -11.96007,2.04197 -24.50357,2.1392 -36.90122,0 -5.59109,-0.97236 -9.72364,-5.78557 -9.72364,-11.4739 v -16.33571 c -9.86949,-3.50052 -18.91248,-8.75128 -26.69139,-15.41198 l -14.1479,8.11924 c -4.86182,2.81986 -11.13357,1.75026 -14.73132,-2.57676 -7.87615,-9.43193 -16.18986,-20.22517 -20.51688,-31.94216 -1.94473,-5.29939 0.19447,-11.27943 5.10491,-14.1479 l 16.18986,-8.16786 c -1.89611,-10.16121 -1.89611,-20.61412 0,-30.82394 l -16.18986,-8.21648 c -4.91044,-2.81986 -7.09826,-8.7999 -5.10491,-14.09928 4.32702,-11.76561 12.64073,-22.55885 20.51688,-31.99078 3.59775,-4.32703 9.82088,-5.39663 14.73132,-2.57677 l 14.1479,8.16786 c 7.77891,-6.6607 16.8219,-11.96008 26.69139,-15.41197 v -16.38434 c 0,-5.59109 3.9867,-10.45291 9.52917,-11.42528 11.96008,-2.041956 24.5522,-2.139196 36.94984,-0.0486 5.59109,0.97237 9.72364,5.78557 9.72364,11.4739 v 16.33572 c 9.8695,3.50051 18.91248,8.75128 26.6914,15.41197 l 14.1479,-8.16786 c 4.86182,-2.81986 11.13356,-1.75025 14.73131,2.57677 7.87615,9.43193 16.14125,20.22517 20.46827,31.99078 1.94473,5.29939 0.0486,11.27943 -4.86182,14.1479 l -16.38434,8.16786 c 1.89611,10.20982 1.89611,20.66274 0,30.87256 z m -57.17501,10.25844 c 28.78198,-37.43602 -13.95343,-80.17143 -51.38945,-51.38944 -28.78198,37.43602 13.95343,80.17142 51.38945,51.38944 z m 118.33672,88.82547 -3.9867,6.9524 c -1.45854,2.57677 -4.57011,3.64637 -7.34135,2.62538 -5.73694,-2.1392 -10.98771,-5.20214 -15.60644,-9.04298 -2.23644,-1.84749 -2.81986,-5.10491 -1.36131,-7.63306 l 3.98669,-6.9524 c -3.35465,-3.88946 -5.98004,-8.41095 -7.73029,-13.32139 h -8.02201 c -2.91709,0 -5.44524,-2.09059 -5.93142,-5.00768 -0.97236,-5.83418 -1.02098,-11.96008 0,-18.03735 0.48618,-2.9171 3.01433,-5.0563 5.93142,-5.0563 h 8.02201 c 1.75025,-4.91044 4.37564,-9.43193 7.73029,-13.32139 l -3.98669,-6.9524 c -1.45855,-2.52815 -0.92375,-5.78557 1.36131,-7.63306 4.61873,-3.84084 9.91811,-6.90378 15.60644,-9.04299 2.77124,-1.02098 5.88281,0.0486 7.34135,2.62539 l 3.9867,6.9524 c 5.10491,-0.92374 10.30706,-0.92374 15.41197,0 l 3.98669,-6.9524 c 1.45855,-2.57677 4.57011,-3.64637 7.34135,-2.62539 5.73695,2.13921 10.98772,5.20215 15.60645,9.04299 2.23643,1.84749 2.81985,5.10491 1.3613,7.63306 l -3.98669,6.9524 c 3.35466,3.88946 5.98004,8.41095 7.7303,13.32139 h 8.022 c 2.91709,0 5.44524,2.09059 5.93142,5.00768 0.97237,5.83418 1.02098,11.96008 0,18.03735 -0.48618,2.91709 -3.01433,5.0563 -5.93142,5.0563 h -8.022 c -1.75026,4.91044 -4.37564,9.43193 -7.7303,13.32139 l 3.98669,6.9524 c 1.45855,2.52815 0.92375,5.78557 -1.3613,7.63306 -4.61873,3.84084 -9.91812,6.90378 -15.60645,9.04298 -2.77124,1.02099 -5.8828,-0.0486 -7.34135,-2.62538 l -3.98669,-6.9524 c -5.0563,0.92374 -10.30706,0.92374 -15.41197,0 z m -5.10492,-28.63613 c 18.71801,14.39099 40.06141,-6.9524 25.67042,-25.67041 -18.71801,-14.39099 -40.06141,6.9524 -25.67042,25.67041 z"
     id="path50"
     style="stroke-width:0.486182" />
</svg>
